<mxfile host="app.diagrams.net" modified="2023-05-29T08:29:51.392Z" agent="Mozilla/5.0 (Windows NT 10.0; Win64; x64) AppleWebKit/537.36 (KHTML, like Gecko) Chrome/113.0.0.0 Safari/537.36" etag="0cP9_CkGWNpCkbnYUkm7" version="21.3.5" type="google">
  <diagram name="Page-1" id="9-VtAreLOSY2Nrq-KaF0">
    <mxGraphModel grid="1" page="1" gridSize="10" guides="1" tooltips="1" connect="1" arrows="1" fold="1" pageScale="1" pageWidth="827" pageHeight="1169" background="none" math="0" shadow="0">
      <root>
        <mxCell id="0" />
        <mxCell id="1" parent="0" />
        <mxCell id="UhiSBDZT8-SxpYW1fQKk-16" style="edgeStyle=orthogonalEdgeStyle;rounded=0;orthogonalLoop=1;jettySize=auto;html=1;exitX=0.5;exitY=1;exitDx=0;exitDy=0;entryX=0.5;entryY=0;entryDx=0;entryDy=0;fontColor=#000000;labelBackgroundColor=none;fillColor=#f5f5f5;strokeColor=#000000;" edge="1" parent="1" source="UhiSBDZT8-SxpYW1fQKk-1" target="UhiSBDZT8-SxpYW1fQKk-5">
          <mxGeometry relative="1" as="geometry" />
        </mxCell>
        <mxCell id="UhiSBDZT8-SxpYW1fQKk-1" value="Début" style="ellipse;whiteSpace=wrap;html=1;labelBackgroundColor=none;fillColor=#f5f5f5;strokeColor=#000000;fontColor=#333333;" vertex="1" parent="1">
          <mxGeometry x="560" y="50" width="80" height="40" as="geometry" />
        </mxCell>
        <mxCell id="UhiSBDZT8-SxpYW1fQKk-2" value="Getstate.awk" style="rounded=0;whiteSpace=wrap;html=1;labelBackgroundColor=none;fillColor=#f5f5f5;strokeColor=#000000;fontColor=#333333;" vertex="1" parent="1">
          <mxGeometry y="50" width="90" height="30" as="geometry" />
        </mxCell>
        <mxCell id="UhiSBDZT8-SxpYW1fQKk-3" value="Entrées : &lt;br&gt;&lt;span style=&quot;white-space: pre;&quot;&gt; &lt;/span&gt;- Date actuelle au format : &quot;JJ-MM-AAAA;HH:MM:SS&quot;&lt;br&gt;&lt;span style=&quot;white-space: pre;&quot;&gt; &lt;/span&gt;- Fichier texte nommé : &quot;status_NOMSALLE.txt&quot; :&lt;br&gt;&lt;span style=&quot;white-space: pre;&quot;&gt; &lt;/span&gt;&lt;span style=&quot;white-space: pre;&quot;&gt; &lt;/span&gt;- Format : &quot;JJMMAAAA:hQUARTD&#39;H;STATUT&quot;&lt;br&gt;Sortie : &lt;br&gt;&lt;span style=&quot;white-space: pre;&quot;&gt; &lt;/span&gt;- Statut du matériel de la salle à l&#39;instant t :&lt;br&gt;&lt;span style=&quot;white-space: pre;&quot;&gt; &lt;/span&gt;&lt;span style=&quot;white-space: pre;&quot;&gt; &lt;/span&gt;- 1 pour allumé&lt;br&gt;&lt;span style=&quot;white-space: pre;&quot;&gt; &lt;/span&gt;&lt;span style=&quot;white-space: pre;&quot;&gt; &lt;/span&gt;- 0 pour éteint" style="rounded=0;whiteSpace=wrap;html=1;align=left;labelBackgroundColor=none;fillColor=#f5f5f5;strokeColor=#000000;fontColor=#333333;" vertex="1" parent="1">
          <mxGeometry y="80" width="320" height="120" as="geometry" />
        </mxCell>
        <mxCell id="UhiSBDZT8-SxpYW1fQKk-15" style="edgeStyle=orthogonalEdgeStyle;rounded=0;orthogonalLoop=1;jettySize=auto;html=1;exitX=0.5;exitY=1;exitDx=0;exitDy=0;entryX=0.5;entryY=0;entryDx=0;entryDy=0;fontColor=#000000;labelBackgroundColor=none;fillColor=#f5f5f5;strokeColor=#000000;" edge="1" parent="1" source="UhiSBDZT8-SxpYW1fQKk-5" target="UhiSBDZT8-SxpYW1fQKk-6">
          <mxGeometry relative="1" as="geometry" />
        </mxCell>
        <mxCell id="UhiSBDZT8-SxpYW1fQKk-5" value="Séparation du temps et de la date" style="rounded=0;whiteSpace=wrap;html=1;labelBackgroundColor=none;fillColor=#f5f5f5;strokeColor=#000000;fontColor=#333333;" vertex="1" parent="1">
          <mxGeometry x="505" y="115" width="190" height="30" as="geometry" />
        </mxCell>
        <mxCell id="UhiSBDZT8-SxpYW1fQKk-14" style="edgeStyle=orthogonalEdgeStyle;rounded=0;orthogonalLoop=1;jettySize=auto;html=1;exitX=0.5;exitY=1;exitDx=0;exitDy=0;fontColor=#000000;labelBackgroundColor=none;fillColor=#f5f5f5;strokeColor=#000000;" edge="1" parent="1" source="UhiSBDZT8-SxpYW1fQKk-6" target="UhiSBDZT8-SxpYW1fQKk-7">
          <mxGeometry relative="1" as="geometry" />
        </mxCell>
        <mxCell id="UhiSBDZT8-SxpYW1fQKk-6" value="Séparation de l&#39;heure et des minutes" style="rounded=0;whiteSpace=wrap;html=1;labelBackgroundColor=none;fillColor=#f5f5f5;strokeColor=#000000;fontColor=#333333;" vertex="1" parent="1">
          <mxGeometry x="495" y="175" width="210" height="30" as="geometry" />
        </mxCell>
        <mxCell id="UhiSBDZT8-SxpYW1fQKk-7" value="Calcul du quart d&#39;heure :&amp;nbsp;h15 = (h)*4+(m-(m%15))/15" style="rounded=0;whiteSpace=wrap;html=1;labelBackgroundColor=none;fillColor=#f5f5f5;strokeColor=#000000;fontColor=#333333;" vertex="1" parent="1">
          <mxGeometry x="450" y="235" width="300" height="30" as="geometry" />
        </mxCell>
        <mxCell id="UhiSBDZT8-SxpYW1fQKk-8" value="On coupe le champ en 2 parties :&lt;br&gt;- P1 = &quot;JJMMAAAA:hQUARTD&#39;H&quot;&lt;br&gt;- P2 = &quot;STATUT&quot;" style="rounded=0;whiteSpace=wrap;html=1;labelBackgroundColor=none;fillColor=#f5f5f5;strokeColor=#000000;fontColor=#333333;" vertex="1" parent="1">
          <mxGeometry x="502.5" y="300" width="195" height="60" as="geometry" />
        </mxCell>
        <mxCell id="UhiSBDZT8-SxpYW1fQKk-9" value="P1 = date_act &quot;:h&quot; h15" style="rhombus;whiteSpace=wrap;html=1;labelBackgroundColor=none;fillColor=#f5f5f5;strokeColor=#000000;fontColor=#333333;" vertex="1" parent="1">
          <mxGeometry x="495" y="400" width="210" height="50" as="geometry" />
        </mxCell>
        <mxCell id="UhiSBDZT8-SxpYW1fQKk-10" value="Vrai" style="text;html=1;align=center;verticalAlign=middle;whiteSpace=wrap;rounded=0;labelBackgroundColor=none;fillColor=none;strokeColor=none;fontColor=#333333;" vertex="1" parent="1">
          <mxGeometry x="590" y="450" width="60" height="30" as="geometry" />
        </mxCell>
        <mxCell id="UhiSBDZT8-SxpYW1fQKk-11" value="Faux" style="text;html=1;align=center;verticalAlign=middle;whiteSpace=wrap;rounded=0;labelBackgroundColor=none;fillColor=none;strokeColor=none;fontColor=#333333;" vertex="1" parent="1">
          <mxGeometry x="442.5" y="400" width="60" height="30" as="geometry" />
        </mxCell>
        <mxCell id="UhiSBDZT8-SxpYW1fQKk-12" value="" style="endArrow=classic;html=1;rounded=0;exitX=0.5;exitY=1;exitDx=0;exitDy=0;entryX=0.5;entryY=0;entryDx=0;entryDy=0;fontColor=#000000;labelBackgroundColor=none;fillColor=#f5f5f5;strokeColor=#000000;" edge="1" parent="1" source="UhiSBDZT8-SxpYW1fQKk-8" target="UhiSBDZT8-SxpYW1fQKk-9">
          <mxGeometry width="50" height="50" relative="1" as="geometry">
            <mxPoint x="510" y="520" as="sourcePoint" />
            <mxPoint x="560" y="470" as="targetPoint" />
          </mxGeometry>
        </mxCell>
        <mxCell id="UhiSBDZT8-SxpYW1fQKk-13" value="" style="endArrow=classic;html=1;rounded=0;exitX=0.5;exitY=1;exitDx=0;exitDy=0;entryX=0.5;entryY=0;entryDx=0;entryDy=0;fontColor=#000000;labelBackgroundColor=none;fillColor=#f5f5f5;strokeColor=#000000;" edge="1" parent="1" source="UhiSBDZT8-SxpYW1fQKk-7" target="UhiSBDZT8-SxpYW1fQKk-8">
          <mxGeometry width="50" height="50" relative="1" as="geometry">
            <mxPoint x="510" y="420" as="sourcePoint" />
            <mxPoint x="560" y="370" as="targetPoint" />
          </mxGeometry>
        </mxCell>
        <mxCell id="UhiSBDZT8-SxpYW1fQKk-19" value="Prochain champ" style="rounded=0;whiteSpace=wrap;html=1;labelBackgroundColor=none;fillColor=#f5f5f5;strokeColor=#000000;fontColor=#333333;" vertex="1" parent="1">
          <mxGeometry x="150" y="410" width="100" height="30" as="geometry" />
        </mxCell>
        <mxCell id="UhiSBDZT8-SxpYW1fQKk-20" value="" style="endArrow=none;html=1;rounded=0;exitX=0.5;exitY=0;exitDx=0;exitDy=0;fontColor=#000000;labelBackgroundColor=none;fillColor=#f5f5f5;strokeColor=#000000;" edge="1" parent="1" source="UhiSBDZT8-SxpYW1fQKk-19">
          <mxGeometry width="50" height="50" relative="1" as="geometry">
            <mxPoint x="450" y="400" as="sourcePoint" />
            <mxPoint x="200" y="280" as="targetPoint" />
          </mxGeometry>
        </mxCell>
        <mxCell id="UhiSBDZT8-SxpYW1fQKk-21" value="" style="endArrow=classic;html=1;rounded=0;fontColor=#000000;labelBackgroundColor=none;fillColor=#f5f5f5;strokeColor=#000000;" edge="1" parent="1">
          <mxGeometry width="50" height="50" relative="1" as="geometry">
            <mxPoint x="200" y="280" as="sourcePoint" />
            <mxPoint x="600" y="280" as="targetPoint" />
          </mxGeometry>
        </mxCell>
        <mxCell id="UhiSBDZT8-SxpYW1fQKk-26" style="edgeStyle=orthogonalEdgeStyle;rounded=0;orthogonalLoop=1;jettySize=auto;html=1;exitX=0.5;exitY=1;exitDx=0;exitDy=0;entryX=0.5;entryY=0;entryDx=0;entryDy=0;fontColor=#000000;labelBackgroundColor=none;fillColor=#f5f5f5;strokeColor=#000000;" edge="1" parent="1" source="UhiSBDZT8-SxpYW1fQKk-23" target="UhiSBDZT8-SxpYW1fQKk-25">
          <mxGeometry relative="1" as="geometry" />
        </mxCell>
        <mxCell id="UhiSBDZT8-SxpYW1fQKk-23" value="On envoi P2 en tant que sortie" style="rounded=0;whiteSpace=wrap;html=1;labelBackgroundColor=none;fillColor=#f5f5f5;strokeColor=#000000;fontColor=#333333;" vertex="1" parent="1">
          <mxGeometry x="510" y="490" width="180" height="30" as="geometry" />
        </mxCell>
        <mxCell id="UhiSBDZT8-SxpYW1fQKk-24" value="" style="endArrow=classic;html=1;rounded=0;entryX=0.5;entryY=0;entryDx=0;entryDy=0;exitX=0.5;exitY=1;exitDx=0;exitDy=0;fontColor=#000000;labelBackgroundColor=none;fillColor=#f5f5f5;strokeColor=#000000;" edge="1" parent="1" source="UhiSBDZT8-SxpYW1fQKk-9" target="UhiSBDZT8-SxpYW1fQKk-23">
          <mxGeometry width="50" height="50" relative="1" as="geometry">
            <mxPoint x="440" y="470" as="sourcePoint" />
            <mxPoint x="490" y="420" as="targetPoint" />
          </mxGeometry>
        </mxCell>
        <mxCell id="UhiSBDZT8-SxpYW1fQKk-35" style="edgeStyle=orthogonalEdgeStyle;rounded=0;orthogonalLoop=1;jettySize=auto;html=1;exitX=0.5;exitY=1;exitDx=0;exitDy=0;entryX=0.5;entryY=0;entryDx=0;entryDy=0;fontColor=#000000;labelBackgroundColor=none;fillColor=#f5f5f5;strokeColor=#000000;" edge="1" parent="1" source="UhiSBDZT8-SxpYW1fQKk-25" target="UhiSBDZT8-SxpYW1fQKk-34">
          <mxGeometry relative="1" as="geometry" />
        </mxCell>
        <mxCell id="UhiSBDZT8-SxpYW1fQKk-25" value="résultat = P2" style="rounded=0;whiteSpace=wrap;html=1;labelBackgroundColor=none;fillColor=#f5f5f5;strokeColor=#000000;fontColor=#333333;" vertex="1" parent="1">
          <mxGeometry x="555" y="555" width="90" height="30" as="geometry" />
        </mxCell>
        <mxCell id="UhiSBDZT8-SxpYW1fQKk-27" value="Dernier champ" style="rhombus;whiteSpace=wrap;html=1;labelBackgroundColor=none;fillColor=#f5f5f5;strokeColor=#000000;fontColor=#333333;" vertex="1" parent="1">
          <mxGeometry x="315" y="400" width="120" height="50" as="geometry" />
        </mxCell>
        <mxCell id="UhiSBDZT8-SxpYW1fQKk-28" value="" style="endArrow=classic;html=1;rounded=0;exitX=0;exitY=0.5;exitDx=0;exitDy=0;entryX=1;entryY=0.5;entryDx=0;entryDy=0;fontColor=#000000;labelBackgroundColor=none;fillColor=#f5f5f5;strokeColor=#000000;" edge="1" parent="1" source="UhiSBDZT8-SxpYW1fQKk-9" target="UhiSBDZT8-SxpYW1fQKk-27">
          <mxGeometry width="50" height="50" relative="1" as="geometry">
            <mxPoint x="300" y="540" as="sourcePoint" />
            <mxPoint x="350" y="490" as="targetPoint" />
          </mxGeometry>
        </mxCell>
        <mxCell id="UhiSBDZT8-SxpYW1fQKk-29" value="" style="endArrow=none;html=1;rounded=0;entryX=0;entryY=0.5;entryDx=0;entryDy=0;exitX=1;exitY=0.5;exitDx=0;exitDy=0;fontColor=#000000;labelBackgroundColor=none;fillColor=#f5f5f5;strokeColor=#000000;" edge="1" parent="1" source="UhiSBDZT8-SxpYW1fQKk-19" target="UhiSBDZT8-SxpYW1fQKk-27">
          <mxGeometry width="50" height="50" relative="1" as="geometry">
            <mxPoint x="300" y="540" as="sourcePoint" />
            <mxPoint x="350" y="490" as="targetPoint" />
          </mxGeometry>
        </mxCell>
        <mxCell id="UhiSBDZT8-SxpYW1fQKk-30" value="Faux" style="text;html=1;align=center;verticalAlign=middle;whiteSpace=wrap;rounded=0;labelBackgroundColor=none;fillColor=none;strokeColor=none;fontColor=#333333;" vertex="1" parent="1">
          <mxGeometry x="255" y="400" width="60" height="30" as="geometry" />
        </mxCell>
        <mxCell id="UhiSBDZT8-SxpYW1fQKk-31" value="" style="endArrow=classic;html=1;rounded=0;exitX=0.5;exitY=1;exitDx=0;exitDy=0;fontColor=#000000;labelBackgroundColor=none;fillColor=#f5f5f5;strokeColor=#000000;" edge="1" parent="1" source="UhiSBDZT8-SxpYW1fQKk-27">
          <mxGeometry width="50" height="50" relative="1" as="geometry">
            <mxPoint x="480" y="520" as="sourcePoint" />
            <mxPoint x="600" y="600" as="targetPoint" />
            <Array as="points">
              <mxPoint x="375" y="600" />
            </Array>
          </mxGeometry>
        </mxCell>
        <mxCell id="UhiSBDZT8-SxpYW1fQKk-32" value="Vrai" style="text;html=1;align=center;verticalAlign=middle;whiteSpace=wrap;rounded=0;labelBackgroundColor=none;fillColor=none;strokeColor=none;fontColor=#333333;" vertex="1" parent="1">
          <mxGeometry x="370" y="450" width="60" height="30" as="geometry" />
        </mxCell>
        <mxCell id="UhiSBDZT8-SxpYW1fQKk-40" style="edgeStyle=orthogonalEdgeStyle;rounded=0;orthogonalLoop=1;jettySize=auto;html=1;exitX=0;exitY=0.5;exitDx=0;exitDy=0;entryX=1;entryY=0.5;entryDx=0;entryDy=0;fontColor=#000000;labelBackgroundColor=none;fillColor=#f5f5f5;strokeColor=#000000;" edge="1" parent="1" source="UhiSBDZT8-SxpYW1fQKk-34" target="UhiSBDZT8-SxpYW1fQKk-37">
          <mxGeometry relative="1" as="geometry" />
        </mxCell>
        <mxCell id="UhiSBDZT8-SxpYW1fQKk-41" style="edgeStyle=orthogonalEdgeStyle;rounded=0;orthogonalLoop=1;jettySize=auto;html=1;exitX=0.5;exitY=1;exitDx=0;exitDy=0;entryX=0.5;entryY=0;entryDx=0;entryDy=0;fontColor=#000000;labelBackgroundColor=none;fillColor=#f5f5f5;strokeColor=#000000;" edge="1" parent="1" source="UhiSBDZT8-SxpYW1fQKk-34" target="UhiSBDZT8-SxpYW1fQKk-36">
          <mxGeometry relative="1" as="geometry" />
        </mxCell>
        <mxCell id="UhiSBDZT8-SxpYW1fQKk-34" value="résultat = 1 ou résultat = 0" style="rhombus;whiteSpace=wrap;html=1;labelBackgroundColor=none;fillColor=#f5f5f5;strokeColor=#000000;fontColor=#333333;" vertex="1" parent="1">
          <mxGeometry x="495" y="620" width="210" height="60" as="geometry" />
        </mxCell>
        <mxCell id="UhiSBDZT8-SxpYW1fQKk-45" style="edgeStyle=orthogonalEdgeStyle;rounded=0;orthogonalLoop=1;jettySize=auto;html=1;exitX=0.5;exitY=1;exitDx=0;exitDy=0;entryX=0.5;entryY=0;entryDx=0;entryDy=0;fontColor=#000000;labelBackgroundColor=none;fillColor=#f5f5f5;strokeColor=#000000;" edge="1" parent="1" source="UhiSBDZT8-SxpYW1fQKk-36" target="UhiSBDZT8-SxpYW1fQKk-44">
          <mxGeometry relative="1" as="geometry" />
        </mxCell>
        <mxCell id="UhiSBDZT8-SxpYW1fQKk-36" value="Rien" style="rounded=0;whiteSpace=wrap;html=1;labelBackgroundColor=none;fillColor=#f5f5f5;strokeColor=#000000;fontColor=#333333;" vertex="1" parent="1">
          <mxGeometry x="575" y="720" width="50" height="30" as="geometry" />
        </mxCell>
        <mxCell id="UhiSBDZT8-SxpYW1fQKk-42" style="edgeStyle=orthogonalEdgeStyle;rounded=0;orthogonalLoop=1;jettySize=auto;html=1;exitX=0.5;exitY=1;exitDx=0;exitDy=0;fontColor=#000000;labelBackgroundColor=none;fillColor=#f5f5f5;strokeColor=#000000;" edge="1" parent="1" source="UhiSBDZT8-SxpYW1fQKk-37">
          <mxGeometry relative="1" as="geometry">
            <mxPoint x="600" y="770" as="targetPoint" />
            <Array as="points">
              <mxPoint x="350" y="770" />
            </Array>
          </mxGeometry>
        </mxCell>
        <mxCell id="UhiSBDZT8-SxpYW1fQKk-37" value="On envoi 0 en tant&amp;nbsp; que sortie" style="rounded=0;whiteSpace=wrap;html=1;labelBackgroundColor=none;fillColor=#f5f5f5;strokeColor=#000000;fontColor=#333333;" vertex="1" parent="1">
          <mxGeometry x="265" y="635" width="170" height="30" as="geometry" />
        </mxCell>
        <mxCell id="UhiSBDZT8-SxpYW1fQKk-38" value="Vrai" style="text;html=1;align=center;verticalAlign=middle;whiteSpace=wrap;rounded=0;labelBackgroundColor=none;fillColor=none;strokeColor=none;fontColor=#333333;" vertex="1" parent="1">
          <mxGeometry x="590" y="680" width="60" height="30" as="geometry" />
        </mxCell>
        <mxCell id="UhiSBDZT8-SxpYW1fQKk-39" value="Faux" style="text;html=1;align=center;verticalAlign=middle;whiteSpace=wrap;rounded=0;labelBackgroundColor=none;fillColor=none;strokeColor=none;fontColor=#333333;" vertex="1" parent="1">
          <mxGeometry x="442.5" y="620" width="60" height="30" as="geometry" />
        </mxCell>
        <mxCell id="UhiSBDZT8-SxpYW1fQKk-44" value="Fin" style="ellipse;whiteSpace=wrap;html=1;labelBackgroundColor=none;fillColor=#f5f5f5;strokeColor=#000000;fontColor=#333333;" vertex="1" parent="1">
          <mxGeometry x="565" y="790" width="70" height="40" as="geometry" />
        </mxCell>
      </root>
    </mxGraphModel>
  </diagram>
</mxfile>
